<svg width="24" height="24" viewBox="0 0 24 24" fill="none" xmlns="http://www.w3.org/2000/svg">
<path fill-rule="evenodd" clip-rule="evenodd" d="M3 13.5C2.44775 13.5 2 12.8284 2 12C2 11.1716 2.44775 10.5 3 10.5C3.01794 10.5 3.03589 10.5006 3.05371 10.5021C3.073 10.4456 3.09741 10.3907 3.12659 10.3383C3.146 10.3033 3.1676 10.2695 3.19128 10.2371L6.70044 5.41187C6.88867 5.15308 7.18933 5 7.50928 5H16.4907C16.8107 5 17.1113 5.15308 17.2996 5.41187L20.8087 10.2371C20.8679 10.3185 20.9142 10.408 20.9463 10.5021C20.9562 10.5012 20.9661 10.5007 20.976 10.5004L21 10.5C21.5522 10.5 22 11.1716 22 12C22 12.8284 21.5522 13.5 21 13.5V19.5H19V18.5H5V19.5H3V13.5ZM8 6.5H16L19 10.5H5L8 6.5ZM7 14.5C7 15.0522 6.55225 15.5 6 15.5C5.44775 15.5 5 15.0522 5 14.5C5 13.9478 5.44775 13.5 6 13.5C6.55225 13.5 7 13.9478 7 14.5ZM18 15.5C18.5522 15.5 19 15.0522 19 14.5C19 13.9478 18.5522 13.5 18 13.5C17.4478 13.5 17 13.9478 17 14.5C17 15.0522 17.4478 15.5 18 15.5Z" fill="#3B3B3B"/>
</svg>
