<svg width="24" height="24" viewBox="0 0 24 24" fill="none" xmlns="http://www.w3.org/2000/svg">
<path d="M12 14.9237C10.3877 14.9237 9.07631 13.6123 9.07631 12C9.07631 10.3877 10.3877 9.07631 12 9.07631C13.6123 9.07631 14.9237 10.3877 14.9237 12C14.9237 13.6123 13.6123 14.9237 12 14.9237ZM12 10.2427C11.0314 10.2427 10.2427 11.0306 10.2427 12C10.2427 12.9693 11.0306 13.7573 12 13.7573C12.9693 13.7573 13.7573 12.9693 13.7573 12C13.7573 11.0306 12.9693 10.2427 12 10.2427Z" fill="#555555"/>
<path d="M12 2C6.48616 2 2 6.48616 2 12C2 17.5138 6.48616 22 12 22C17.5138 22 22 17.5138 22 12C22 6.48616 17.5138 2 12 2ZM12.5832 20.8144V18.0565C12.5832 17.7343 12.3222 17.4733 12 17.4733C11.6778 17.4733 11.4168 17.7343 11.4168 18.0565V20.8144C7.0096 20.5257 3.475 16.9911 3.18626 12.5839H5.94424C6.26641 12.5839 6.52741 12.3229 6.52741 12.0007C6.52741 11.6785 6.26641 11.4175 5.94424 11.4175H3.18626C3.475 7.01031 7.0096 3.47571 11.4168 3.18697V5.94495C11.4168 6.26712 11.6778 6.52812 12 6.52812C12.3222 6.52812 12.5832 6.26712 12.5832 5.94495V3.18697C16.9904 3.47571 20.525 7.01031 20.8137 11.4175H18.0557C17.7336 11.4175 17.4726 11.6785 17.4726 12.0007C17.4726 12.3229 17.7336 12.5839 18.0557 12.5839H20.8137C20.525 16.9911 16.9904 20.5257 12.5832 20.8144Z" fill="#555555"/>
</svg>
