<svg width="20" height="20" viewBox="0 0 20 20" fill="none" xmlns="http://www.w3.org/2000/svg">
<g clip-path="url(#clip0_208_1942)">
<path d="M18.3333 11.6667L15.8841 9.90326C14.6115 8.98695 12.8722 9.08165 11.7066 10.1307L8.2934 13.2026C7.12775 14.2517 5.38849 14.3464 4.11583 13.4301L1.66666 11.6667M4.99999 18.3333H15C16.8409 18.3333 18.3333 16.8409 18.3333 15V5C18.3333 3.15905 16.8409 1.66666 15 1.66666H4.99999C3.15904 1.66666 1.66666 3.15905 1.66666 5V15C1.66666 16.8409 3.15904 18.3333 4.99999 18.3333ZM9.16666 7.08333C9.16666 8.23392 8.23392 9.16666 7.08332 9.16666C5.93273 9.16666 4.99999 8.23392 4.99999 7.08333C4.99999 5.93274 5.93273 5 7.08332 5C8.23392 5 9.16666 5.93274 9.16666 7.08333Z" stroke="white" stroke-width="1.5" stroke-linecap="round"/>
</g>
<defs>
<clipPath id="clip0_208_1942">
<rect width="20" height="20" fill="white"/>
</clipPath>
</defs>
</svg>
