<svg width="24" height="24" viewBox="0 0 24 24" fill="none" xmlns="http://www.w3.org/2000/svg">
<path fill-rule="evenodd" clip-rule="evenodd" d="M13.1652 20.7147C14.822 19.0064 19 14.3327 19 10.6446C19 6.55563 16.0899 4 12.5 4C8.91015 4 6 6.55563 6 10.6446C6 14.3327 10.178 19.0064 11.8348 20.7147C12.2036 21.095 12.7964 21.095 13.1652 20.7147ZM12.5 13.2003C13.8807 13.2003 15 12.0561 15 10.6447C15 9.23323 13.8807 8.08904 12.5 8.08904C11.1193 8.08904 10 9.23323 10 10.6447C10 12.0561 11.1193 13.2003 12.5 13.2003Z" fill="#C9D1DC"/>
</svg>
