<svg width="17" height="17" viewBox="0 0 17 17" fill="none" xmlns="http://www.w3.org/2000/svg">
<path fill-rule="evenodd" clip-rule="evenodd" d="M5 1.30769C5 0.585474 5.59695 0 6.33333 0H11.6667C12.403 0 13 0.585474 13 1.30769H15.6667C16.403 1.30769 17 1.89317 17 2.61538V17H15V15.6923H3V17H1V2.61538C1 1.89317 1.59695 1.30769 2.33333 1.30769H5ZM15 3.92308H3V8.5H15V3.92308ZM5 12.0962C5 12.6378 4.55228 13.0769 4 13.0769C3.44772 13.0769 3 12.6378 3 12.0962C3 11.5545 3.44772 11.1154 4 11.1154C4.55228 11.1154 5 11.5545 5 12.0962ZM14 13.0769C14.5523 13.0769 15 12.6378 15 12.0962C15 11.5545 14.5523 11.1154 14 11.1154C13.4477 11.1154 13 11.5545 13 12.0962C13 12.6378 13.4477 13.0769 14 13.0769Z" fill="white"/>
</svg>
