<svg width="24" height="24" viewBox="0 0 24 24" fill="none" xmlns="http://www.w3.org/2000/svg">
<path d="M14.6667 16.7H9.33333C8.8029 16.7 8.29419 16.4946 7.91912 16.1289C7.54405 15.7632 7.33333 15.2672 7.33333 14.75V8.25C7.33333 8.07761 7.2631 7.91228 7.13807 7.79038C7.01305 7.66848 6.84348 7.6 6.66667 7.6C6.48986 7.6 6.32029 7.66848 6.19526 7.79038C6.07024 7.91228 6 8.07761 6 8.25V14.75C6 15.612 6.35119 16.4386 6.97631 17.0481C7.60143 17.6576 8.44928 18 9.33333 18H14.6667C14.8435 18 15.013 17.9315 15.1381 17.8096C15.2631 17.6877 15.3333 17.5224 15.3333 17.35C15.3333 17.1776 15.2631 17.0123 15.1381 16.8904C15.013 16.7685 14.8435 16.7 14.6667 16.7ZM10.6667 12.15C10.6667 12.3224 10.7369 12.4877 10.8619 12.6096C10.987 12.7315 11.1565 12.8 11.3333 12.8H14.6667C14.8435 12.8 15.013 12.7315 15.1381 12.6096C15.2631 12.4877 15.3333 12.3224 15.3333 12.15C15.3333 11.9776 15.2631 11.8123 15.1381 11.6904C15.013 11.5685 14.8435 11.5 14.6667 11.5H11.3333C11.1565 11.5 10.987 11.5685 10.8619 11.6904C10.7369 11.8123 10.6667 11.9776 10.6667 12.15ZM18 9.511C17.9931 9.45129 17.9796 9.39246 17.96 9.3355V9.277C17.9279 9.21017 17.8852 9.14873 17.8333 9.095L13.8333 5.195C13.7782 5.14444 13.7152 5.10275 13.6467 5.0715C13.6268 5.06874 13.6066 5.06874 13.5867 5.0715C13.5189 5.03363 13.4441 5.00932 13.3667 5H10.6667C10.1362 5 9.62753 5.20545 9.25245 5.57114C8.87738 5.93684 8.66667 6.43283 8.66667 6.95V13.45C8.66667 13.9672 8.87738 14.4632 9.25245 14.8289C9.62753 15.1946 10.1362 15.4 10.6667 15.4H16C16.5304 15.4 17.0391 15.1946 17.4142 14.8289C17.7893 14.4632 18 13.9672 18 13.45V9.55C18 9.55 18 9.55 18 9.511ZM14 7.2165L15.7267 8.9H14.6667C14.4899 8.9 14.3203 8.83152 14.1953 8.70962C14.0702 8.58772 14 8.42239 14 8.25V7.2165ZM16.6667 13.45C16.6667 13.6224 16.5964 13.7877 16.4714 13.9096C16.3464 14.0315 16.1768 14.1 16 14.1H10.6667C10.4899 14.1 10.3203 14.0315 10.1953 13.9096C10.0702 13.7877 10 13.6224 10 13.45V6.95C10 6.77761 10.0702 6.61228 10.1953 6.49038C10.3203 6.36848 10.4899 6.3 10.6667 6.3H12.6667V8.25C12.6685 8.47174 12.7091 8.69156 12.7867 8.9H11.3333C11.1565 8.9 10.987 8.96848 10.8619 9.09038C10.7369 9.21228 10.6667 9.37761 10.6667 9.55C10.6667 9.72239 10.7369 9.88772 10.8619 10.0096C10.987 10.1315 11.1565 10.2 11.3333 10.2H16.6667V13.45Z" fill="#03C75A"/>
</svg>
