<svg width="52" height="10" viewBox="0 0 52 10" fill="none" xmlns="http://www.w3.org/2000/svg">
<g clip-path="url(#clip0_1464_660)">
<path d="M14.9689 0L11.0555 10H14.3819L14.8545 8.67647H18.6054L19.0781 10H22.4045L18.491 0H14.9689ZM15.6145 6.27451L16.73 3.15069L17.8455 6.27451H15.6145Z" fill="#A4A4A4"/>
<path d="M36.2483 6.20098H40.7977V3.79902H36.2483V2.45098H40.8467V0H33.0687V10H40.9445V7.54902H36.2483V6.20098Z" fill="#A4A4A4"/>
<path d="M26.3669 6.57534L24.0188 0H20.6924L24.6058 10H28.1279L32.0414 0H28.715L26.3669 6.57534Z" fill="#A4A4A4"/>
<path d="M6.79962 5.35212L3.08184 0H0V10H3.22859V4.64789L6.94637 10H10.0282V0H6.79962V5.35212Z" fill="#A4A4A4"/>
<path d="M49.477 6.56944L49.7797 6.44252C50.9395 5.95606 51.5293 4.90351 51.5293 3.5677C51.5293 2.30449 51.0696 1.36999 50.1628 0.79013C49.3198 0.25106 48.2266 0 46.7225 0H42.5099V10H45.6406V7.20589H46.7658L48.6736 10H52L49.477 6.56944ZM47.3039 4.65687H45.5917V2.54902H47.3039C47.8847 2.54902 48.3556 3.02088 48.3556 3.60294C48.3556 4.18501 47.8847 4.65687 47.3039 4.65687Z" fill="#A4A4A4"/>
</g>
<defs>
<clipPath id="clip0_1464_660">
<rect width="52" height="10" fill="white"/>
</clipPath>
</defs>
</svg>
