<svg width="38" height="38" viewBox="0 0 38 38" fill="none" xmlns="http://www.w3.org/2000/svg">
<rect x="0.5" y="0.5" width="37" height="37" rx="7.5" fill="white" stroke="#DADADA"/>
<path d="M16.29 20.29L11 25.59V24C11 23.7348 10.8946 23.4804 10.7071 23.2929C10.5196 23.1054 10.2652 23 10 23C9.73478 23 9.48043 23.1054 9.29289 23.2929C9.10536 23.4804 9 23.7348 9 24V28C9.00158 28.1307 9.02876 28.2598 9.08 28.38C9.18147 28.6243 9.37565 28.8185 9.62 28.92C9.74022 28.9712 9.86932 28.9984 10 29H14C14.2652 29 14.5196 28.8946 14.7071 28.7071C14.8946 28.5196 15 28.2652 15 28C15 27.7348 14.8946 27.4804 14.7071 27.2929C14.5196 27.1054 14.2652 27 14 27H12.41L17.71 21.71C17.8983 21.5217 18.0041 21.2663 18.0041 21C18.0041 20.7337 17.8983 20.4783 17.71 20.29C17.5217 20.1017 17.2663 19.9959 17 19.9959C16.7337 19.9959 16.4783 20.1017 16.29 20.29ZM12.41 11H14C14.2652 11 14.5196 10.8946 14.7071 10.7071C14.8946 10.5196 15 10.2652 15 10C15 9.73478 14.8946 9.48043 14.7071 9.29289C14.5196 9.10536 14.2652 9 14 9H10C9.86932 9.00158 9.74022 9.02876 9.62 9.08C9.37565 9.18147 9.18147 9.37565 9.08 9.62C9.02876 9.74022 9.00158 9.86932 9 10V14C9 14.2652 9.10536 14.5196 9.29289 14.7071C9.48043 14.8946 9.73478 15 10 15C10.2652 15 10.5196 14.8946 10.7071 14.7071C10.8946 14.5196 11 14.2652 11 14V12.41L16.29 17.71C16.383 17.8037 16.4936 17.8781 16.6154 17.9289C16.7373 17.9797 16.868 18.0058 17 18.0058C17.132 18.0058 17.2627 17.9797 17.3846 17.9289C17.5064 17.8781 17.617 17.8037 17.71 17.71C17.8037 17.617 17.8781 17.5064 17.9289 17.3846C17.9797 17.2627 18.0058 17.132 18.0058 17C18.0058 16.868 17.9797 16.7373 17.9289 16.6154C17.8781 16.4936 17.8037 16.383 17.71 16.29L12.41 11ZM28 23C27.7348 23 27.4804 23.1054 27.2929 23.2929C27.1054 23.4804 27 23.7348 27 24V25.59L21.71 20.29C21.5217 20.1017 21.2663 19.9959 21 19.9959C20.7337 19.9959 20.4783 20.1017 20.29 20.29C20.1017 20.4783 19.9959 20.7337 19.9959 21C19.9959 21.2663 20.1017 21.5217 20.29 21.71L25.59 27H24C23.7348 27 23.4804 27.1054 23.2929 27.2929C23.1054 27.4804 23 27.7348 23 28C23 28.2652 23.1054 28.5196 23.2929 28.7071C23.4804 28.8946 23.7348 29 24 29H28C28.1307 28.9984 28.2598 28.9712 28.38 28.92C28.6243 28.8185 28.8185 28.6243 28.92 28.38C28.9712 28.2598 28.9984 28.1307 29 28V24C29 23.7348 28.8946 23.4804 28.7071 23.2929C28.5196 23.1054 28.2652 23 28 23ZM28.92 9.62C28.8185 9.37565 28.6243 9.18147 28.38 9.08C28.2598 9.02876 28.1307 9.00158 28 9H24C23.7348 9 23.4804 9.10536 23.2929 9.29289C23.1054 9.48043 23 9.73478 23 10C23 10.2652 23.1054 10.5196 23.2929 10.7071C23.4804 10.8946 23.7348 11 24 11H25.59L20.29 16.29C20.1963 16.383 20.1219 16.4936 20.0711 16.6154C20.0203 16.7373 19.9942 16.868 19.9942 17C19.9942 17.132 20.0203 17.2627 20.0711 17.3846C20.1219 17.5064 20.1963 17.617 20.29 17.71C20.383 17.8037 20.4936 17.8781 20.6154 17.9289C20.7373 17.9797 20.868 18.0058 21 18.0058C21.132 18.0058 21.2627 17.9797 21.3846 17.9289C21.5064 17.8781 21.617 17.8037 21.71 17.71L27 12.41V14C27 14.2652 27.1054 14.5196 27.2929 14.7071C27.4804 14.8946 27.7348 15 28 15C28.2652 15 28.5196 14.8946 28.7071 14.7071C28.8946 14.5196 29 14.2652 29 14V10C28.9984 9.86932 28.9712 9.74022 28.92 9.62Z" fill="#555555"/>
</svg>
