<svg width="24" height="24" viewBox="0 0 24 24" fill="none" xmlns="http://www.w3.org/2000/svg">
<path fill-rule="evenodd" clip-rule="evenodd" d="M13.0643 5.50781C13.7414 4.83073 14.8391 4.83073 15.5162 5.50781L16.7422 6.73378C17.4193 7.41087 17.4193 8.50864 16.7422 9.18572L15.6552 10.2727C15.5699 10.2305 15.4801 10.1848 15.387 10.1358C14.7604 9.80589 14.0169 9.34293 13.462 8.78802C12.9071 8.23312 12.4441 7.48959 12.1143 6.86302C12.0653 6.76992 12.0196 6.68013 11.9773 6.59479L13.0643 5.50781ZM12.6665 9.58352C13.3232 10.2402 14.1582 10.757 14.8196 11.1083L10.545 15.3829C10.2798 15.6481 9.93562 15.8202 9.56425 15.8733L6.98972 16.2411C6.4176 16.3228 5.92721 15.8324 6.00894 15.2603L6.37674 12.6857C6.42979 12.3144 6.60186 11.9702 6.86712 11.705L11.1417 7.43039C11.4931 8.09176 12.0099 8.92686 12.6665 9.58352ZM10.125 17.375C9.81434 17.375 9.5625 17.6268 9.5625 17.9375C9.5625 18.2482 9.81434 18.5 10.125 18.5H16.6875C16.9982 18.5 17.25 18.2482 17.25 17.9375C17.25 17.6268 16.9982 17.375 16.6875 17.375H10.125Z" fill="#0D65B3"/>
</svg>
