<svg width="24" height="24" viewBox="0 0 24 24" fill="none" xmlns="http://www.w3.org/2000/svg">
<path d="M14 9.45H9.99999C9.73477 9.45 9.48041 9.55536 9.29288 9.74289C9.10534 9.93043 8.99999 10.1848 8.99999 10.45C8.99999 10.7152 9.10534 10.9696 9.29288 11.1571C9.48041 11.3446 9.73477 11.45 9.99999 11.45H14C14.2652 11.45 14.5196 11.3446 14.7071 11.1571C14.8946 10.9696 15 10.7152 15 10.45C15 10.1848 14.8946 9.93043 14.7071 9.74289C14.5196 9.55536 14.2652 9.45 14 9.45ZM20.46 9.63C20.3303 8.27183 19.8757 6.96482 19.1344 5.81943C18.3931 4.67403 17.387 3.7239 16.2011 3.04932C15.0152 2.37475 13.6843 1.99556 12.321 1.94379C10.9576 1.89202 9.60182 2.1692 8.36817 2.7519C7.13452 3.3346 6.05926 4.2057 5.23325 5.29158C4.40725 6.37747 3.85478 7.64623 3.62252 8.99066C3.39026 10.3351 3.48504 11.7157 3.89885 13.0157C4.31266 14.3158 5.03334 15.4972 5.99999 16.46L11.3 21.77C11.3929 21.8637 11.5035 21.9381 11.6254 21.9889C11.7473 22.0397 11.878 22.0658 12.01 22.0658C12.142 22.0658 12.2727 22.0397 12.3946 21.9889C12.5164 21.9381 12.627 21.8637 12.72 21.77L18 16.46C18.8912 15.5755 19.5743 14.5036 19.9998 13.3223C20.4253 12.1409 20.5825 10.8797 20.46 9.63ZM16.6 15.05L12 19.65L7.39999 15.05C6.72207 14.3721 6.20279 13.5523 5.87945 12.6498C5.55612 11.7472 5.43677 10.7842 5.52999 9.83C5.6238 8.8611 5.93175 7.92516 6.43156 7.08984C6.93136 6.25453 7.61054 5.54071 8.41999 5C9.48093 4.29524 10.7263 3.9193 12 3.9193C13.2737 3.9193 14.519 4.29524 15.58 5C16.387 5.53862 17.0647 6.24928 17.5643 7.08094C18.064 7.9126 18.3733 8.8446 18.47 9.81C18.5662 10.7674 18.4484 11.7343 18.125 12.6405C17.8015 13.5468 17.2806 14.3698 16.6 15.05Z" fill="#555555"/>
</svg>
