<svg width="78" height="31" viewBox="0 0 78 31" fill="none" xmlns="http://www.w3.org/2000/svg">
<rect width="78" height="31" rx="15.5" fill="#0385FF"/>
<path fill-rule="evenodd" clip-rule="evenodd" d="M19 8.30769C19 7.58547 19.597 7 20.3333 7H25.6667C26.403 7 27 7.58547 27 8.30769H29.6667C30.403 8.30769 31 8.89317 31 9.61538V24H29V22.6923H17V24H15V9.61538C15 8.89317 15.597 8.30769 16.3333 8.30769H19ZM29 10.9231H17V15.5H29V10.9231ZM19 19.0962C19 19.6378 18.5523 20.0769 18 20.0769C17.4477 20.0769 17 19.6378 17 19.0962C17 18.5545 17.4477 18.1154 18 18.1154C18.5523 18.1154 19 18.5545 19 19.0962ZM28 20.0769C28.5523 20.0769 29 19.6378 29 19.0962C29 18.5545 28.5523 18.1154 28 18.1154C27.4477 18.1154 27 18.5545 27 19.0962C27 19.6378 27.4477 20.0769 28 20.0769Z" fill="white"/>
<path d="M40.2695 10.3945V21H38.9365V11.7715H38.8779L36.2998 13.4854V12.1523L38.9365 10.3945H40.2695ZM46.5684 21.1465C44.2173 21.1465 42.855 19.1689 42.8623 15.6973C42.855 12.2549 44.2319 10.248 46.5684 10.248C48.8975 10.248 50.2744 12.2549 50.2744 15.6973C50.2744 19.1689 48.9194 21.1465 46.5684 21.1465ZM44.1367 15.6973C44.144 18.4438 45.0303 19.9746 46.5684 19.9746C48.0991 19.9746 48.9927 18.4438 48.9854 15.6973C48.9927 12.9507 48.0918 11.3979 46.5684 11.3906C45.0449 11.3979 44.144 12.9507 44.1367 15.6973ZM63.4727 16.0635V17.001H58.1699V19.5498H57.0273V17.001H51.5488V16.0635H63.4727ZM53.0723 21.9082V18.3486H54.2148V20.9414H62.1396V21.9082H53.0723ZM53.1455 14.7891V9.58887H54.2881V11.2588H60.7334V9.58887H61.876V14.7891H53.1455ZM54.2881 13.8516H60.7334V12.1377H54.2881V13.8516Z" fill="white"/>
</svg>
