<svg width="24" height="24" viewBox="0 0 24 24" fill="none" xmlns="http://www.w3.org/2000/svg">
<path d="M16 7C17.1046 7 18 6.10457 18 5C18 3.89543 17.1046 3 16 3C14.8954 3 14 3.89543 14 5C14 6.10457 14.8954 7 16 7Z" fill="#484848"/>
<path fill-rule="evenodd" clip-rule="evenodd" d="M2 17C2 14.7909 3.79086 13 6 13C8.20914 13 10 14.7909 10 17C10 19.2091 8.20914 21 6 21C3.79086 21 2 19.2091 2 17ZM6 15C4.89543 15 4 15.8954 4 17C4 18.1046 4.89543 19 6 19C7.10457 19 8 18.1046 8 17C8 15.8954 7.10457 15 6 15Z" fill="#484848"/>
<path fill-rule="evenodd" clip-rule="evenodd" d="M14 17C14 14.7909 15.7909 13 18 13C20.2091 13 22 14.7909 22 17C22 19.2091 20.2091 21 18 21C15.7909 21 14 19.2091 14 17ZM18 15C16.8954 15 16 15.8954 16 17C16 18.1046 16.8954 19 18 19C19.1046 19 20 18.1046 20 17C20 15.8954 19.1046 15 18 15Z" fill="#484848"/>
<path d="M11.9895 7.55546C12.5838 7.03544 13.4795 7.06526 14.0379 7.62366L14.7002 8.28597C14.7044 8.29007 14.7085 8.29422 14.7126 8.29841L16.4142 10H18C18.5523 10 19 10.4477 19 11C19 11.5523 18.5523 12 18 12H16.2071C15.8093 12 15.4278 11.842 15.1464 11.5607L13.9544 10.3686L11.3218 12.6722L12.6389 14.2088C12.8719 14.4806 13 14.8269 13 15.185V19C13 19.5523 12.5523 20 12 20C11.4477 20 11 19.5523 11 19V15.3699L8.56284 12.5266C8.02759 11.9021 8.095 10.9631 8.71396 10.4215L11.9895 7.55546Z" fill="#484848"/>
</svg>
