<svg width="24" height="24" viewBox="0 0 24 24" fill="none" xmlns="http://www.w3.org/2000/svg">
<path d="M11.0593 2.60871C11.377 1.72767 12.623 1.72767 12.9407 2.60871L14.6616 7.38104C14.8006 7.76655 15.1608 8.02822 15.5704 8.04131L20.641 8.20327C21.577 8.23316 21.9621 9.41818 21.2223 9.99259L17.2154 13.104C16.8917 13.3554 16.7541 13.7788 16.8683 14.1724L18.2811 19.0448C18.5419 19.9443 17.5339 20.6767 16.759 20.1507L12.5617 17.3013C12.2226 17.0711 11.7774 17.0711 11.4383 17.3013L7.24098 20.1507C6.46609 20.6767 5.45806 19.9443 5.71889 19.0448L7.13174 14.1724C7.24588 13.7788 7.10831 13.3554 6.78462 13.104L2.77766 9.9926C2.03791 9.41819 2.42295 8.23316 3.35904 8.20327L8.42959 8.04131C8.8392 8.02822 9.19936 7.76655 9.33838 7.38104L11.0593 2.60871Z" fill="#0385FF"/>
</svg>
