<svg width="24" height="24" viewBox="0 0 24 24" fill="none" xmlns="http://www.w3.org/2000/svg">
<path d="M11.319 3.26713C11.587 2.68598 12.413 2.68598 12.681 3.26713L14.3529 6.89176C14.6807 7.60232 15.3541 8.09157 16.1311 8.18371L20.095 8.65368C20.7305 8.72904 20.9858 9.51458 20.5159 9.94911L17.5853 12.6592C17.0108 13.1905 16.7536 13.9821 16.9061 14.7496L17.684 18.6647C17.8088 19.2925 17.1405 19.7779 16.5821 19.4653L13.099 17.5157C12.4162 17.1335 11.5838 17.1335 10.901 17.5157L7.41792 19.4653C6.85947 19.7779 6.19125 19.2925 6.31597 18.6647L7.0939 14.7496C7.2464 13.9821 6.98919 13.1905 6.41468 12.6592L3.48409 9.9491C3.01422 9.51458 3.26946 8.72904 3.905 8.65368L7.86887 8.18371C8.64593 8.09157 9.31933 7.60232 9.64708 6.89176L11.319 3.26713Z" stroke="#A4A4A4" stroke-width="1.5"/>
</svg>
