<svg width="24" height="24" viewBox="0 0 24 24" fill="none" xmlns="http://www.w3.org/2000/svg">
<path fill-rule="evenodd" clip-rule="evenodd" d="M6.11758 3.97743C6.25814 3.39654 6.77043 3 7.35583 3H17.6442C18.2296 3 18.7419 3.39654 18.8824 3.97743C19.2888 5.65698 20.0473 9.15238 19.9977 11.6667C19.9713 13.0029 19.7022 14.7996 19.5102 15.9288C19.4038 16.5539 18.8699 17 18.2492 17H15.9938L19.3478 21H17.3913L16.4596 19.6667H8.04348L6.95652 21H5L8.91304 17H6.75081C6.13014 17 5.59616 16.5539 5.48984 15.9288C5.29779 14.7996 5.02867 13.0029 5.00232 11.6667C4.95273 9.15238 5.71116 5.65698 6.11758 3.97743ZM10.2174 17L8.58696 19H15.9938L14.5963 17H10.2174ZM17.6522 4.33333H7.47832L6.69572 9.66667H18.4348L17.6522 4.33333ZM7.93485 14.3333C8.47512 14.3333 8.91311 13.8856 8.91311 13.3333C8.91311 12.781 8.47512 12.3333 7.93485 12.3333C7.39457 12.3333 6.95658 12.781 6.95658 13.3333C6.95658 13.8856 7.39457 14.3333 7.93485 14.3333ZM18.0435 13.3333C18.0435 13.8856 17.6056 14.3333 17.0653 14.3333C16.525 14.3333 16.087 13.8856 16.087 13.3333C16.087 12.781 16.525 12.3333 17.0653 12.3333C17.6056 12.3333 18.0435 12.781 18.0435 13.3333Z" fill="#484848"/>
</svg>
