<svg width="24" height="24" viewBox="0 0 24 24" fill="none" xmlns="http://www.w3.org/2000/svg">
<path d="M18.75 17.25V16.0155C18.75 15.4022 18.3766 14.8506 17.8071 14.6228L16.2815 14.0126C15.5571 13.7229 14.7316 14.0367 14.3828 14.7345L14.25 15C14.25 15 12.375 14.625 10.875 13.125C9.375 11.625 9 9.75 9 9.75L9.26551 9.61724C9.96328 9.26836 10.2771 8.44285 9.98741 7.71852L9.37717 6.19291C9.14937 5.62343 8.59781 5.25 7.98445 5.25H6.75C5.92157 5.25 5.25 5.92157 5.25 6.75C5.25 13.3774 10.6226 18.75 17.25 18.75C18.0784 18.75 18.75 18.0784 18.75 17.25Z" fill="#A4A4A4"/>
</svg>
