<svg width="35" height="48" viewBox="0 0 35 48" fill="none" xmlns="http://www.w3.org/2000/svg">
<ellipse cx="17.5" cy="47" rx="3.5" ry="1" fill="#B9C0C9" fill-opacity="0.6"/>
<mask id="path-2-inside-1_171_4795" fill="white">
<path fill-rule="evenodd" clip-rule="evenodd" d="M35 17.5C35 22.3967 32.9888 26.8237 29.7475 30H30C30 30 26.6216 33.576 24.2785 36.2632C23.3688 37.3064 22.6152 38.2157 22.2759 38.7297C21.063 40.5676 17.7275 47 17.7275 47C17.7275 47 13.6338 40.1081 12.7241 38.7297C11.9436 37.5472 6.81716 31.9684 5.37619 30.407H5V29.7475C1.90703 26.5911 0 22.2683 0 17.5C0 7.83502 7.83502 0 17.5 0C27.165 0 35 7.83502 35 17.5Z"/>
</mask>
<path fill-rule="evenodd" clip-rule="evenodd" d="M35 17.5C35 22.3967 32.9888 26.8237 29.7475 30H30C30 30 26.6216 33.576 24.2785 36.2632C23.3688 37.3064 22.6152 38.2157 22.2759 38.7297C21.063 40.5676 17.7275 47 17.7275 47C17.7275 47 13.6338 40.1081 12.7241 38.7297C11.9436 37.5472 6.81716 31.9684 5.37619 30.407H5V29.7475C1.90703 26.5911 0 22.2683 0 17.5C0 7.83502 7.83502 0 17.5 0C27.165 0 35 7.83502 35 17.5Z" fill="white"/>
<path d="M29.7475 30L29.4626 29.7093L28.7507 30.407H29.7475V30ZM30 30L30.2958 30.2795L30.9444 29.593H30V30ZM24.2785 36.2632L23.9718 35.9957L24.2785 36.2632ZM22.2759 38.7297L21.9363 38.5056V38.5056L22.2759 38.7297ZM17.7275 47L17.3776 47.2078L17.7516 47.8375L18.0888 47.1873L17.7275 47ZM12.7241 38.7297L13.0637 38.5056H13.0637L12.7241 38.7297ZM5.37619 30.407L5.67527 30.131L5.55441 30H5.37619V30.407ZM5 30.407H4.59302V30.814H5V30.407ZM5 29.7475H5.40698V29.5813L5.29068 29.4626L5 29.7475ZM30.0323 30.2907C33.3486 27.041 35.407 22.5105 35.407 17.5H34.593C34.593 22.2829 32.6291 26.6064 29.4626 29.7093L30.0323 30.2907ZM30 29.593H29.7475V30.407H30V29.593ZM24.5852 36.5306C25.7528 35.1916 27.18 33.6293 28.3167 32.4002C28.8847 31.786 29.3797 31.2557 29.7325 30.879C29.909 30.6906 30.0499 30.5406 30.1466 30.4378C30.195 30.3864 30.2324 30.3468 30.2576 30.32C30.2702 30.3067 30.2798 30.2965 30.2862 30.2897C30.2894 30.2863 30.2918 30.2837 30.2934 30.282C30.2942 30.2812 30.2948 30.2805 30.2952 30.2801C30.2955 30.2799 30.2956 30.2797 30.2957 30.2796C30.2957 30.2796 30.2958 30.2795 30.2958 30.2795C30.2958 30.2795 30.2958 30.2795 30 30C29.7042 29.7205 29.7042 29.7205 29.7041 29.7206C29.7041 29.7206 29.7041 29.7206 29.704 29.7207C29.7039 29.7208 29.7037 29.721 29.7035 29.7212C29.7031 29.7216 29.7025 29.7223 29.7016 29.7232C29.7 29.7249 29.6975 29.7275 29.6943 29.731C29.6878 29.7379 29.6781 29.7481 29.6654 29.7616C29.64 29.7886 29.6025 29.8284 29.5539 29.88C29.4567 29.9832 29.3154 30.1337 29.1385 30.3225C28.7847 30.7003 28.2886 31.2319 27.7191 31.8476C26.5808 33.0783 25.1472 34.6476 23.9718 35.9957L24.5852 36.5306ZM22.6156 38.9539C22.9372 38.4667 23.672 37.578 24.5852 36.5306L23.9718 35.9957C23.0656 37.0349 22.2932 37.9648 21.9363 38.5056L22.6156 38.9539ZM17.7275 47C18.0888 47.1873 18.0888 47.1873 18.0888 47.1873C18.0888 47.1872 18.0889 47.1872 18.0889 47.1871C18.089 47.1869 18.0892 47.1866 18.0893 47.1862C18.0897 47.1855 18.0903 47.1843 18.0911 47.1828C18.0927 47.1797 18.0951 47.1751 18.0983 47.169C18.1046 47.1569 18.114 47.1388 18.1263 47.115C18.151 47.0676 18.1873 46.9978 18.234 46.9082C18.3275 46.729 18.4623 46.4709 18.6279 46.1554C18.9592 45.5243 19.4135 44.6639 19.9055 43.7464C20.894 41.903 22.0216 39.854 22.6156 38.9539L21.9363 38.5056C21.3174 39.4433 20.1707 41.5294 19.1882 43.3617C18.6947 44.282 18.2393 45.1446 17.9073 45.777C17.7412 46.0933 17.606 46.3521 17.5123 46.5319C17.4654 46.6218 17.4289 46.6919 17.4041 46.7396C17.3917 46.7634 17.3823 46.7817 17.3759 46.794C17.3727 46.8001 17.3703 46.8048 17.3687 46.8079C17.3678 46.8095 17.3672 46.8106 17.3668 46.8114C17.3666 46.8118 17.3665 46.8121 17.3663 46.8123C17.3663 46.8124 17.3663 46.8125 17.3662 46.8126C17.3662 46.8126 17.3662 46.8127 17.7275 47ZM12.3844 38.9539C12.8331 39.6338 14.0783 41.6917 15.2179 43.5911C15.7862 44.5383 16.3262 45.4426 16.724 46.11C16.923 46.4437 17.0864 46.7182 17.2 46.9093C17.2569 47.0048 17.3013 47.0794 17.3314 47.1302C17.3465 47.1556 17.3581 47.175 17.3658 47.1881C17.3697 47.1946 17.3727 47.1996 17.3746 47.2029C17.3756 47.2045 17.3763 47.2058 17.3768 47.2066C17.3771 47.207 17.3773 47.2073 17.3774 47.2075C17.3774 47.2076 17.3775 47.2077 17.3775 47.2078C17.3776 47.2078 17.3776 47.2078 17.7275 47C18.0774 46.7922 18.0774 46.7921 18.0773 46.7921C18.0773 46.792 18.0772 46.7919 18.0772 46.7918C18.0771 46.7916 18.0769 46.7913 18.0766 46.7909C18.0761 46.7901 18.0754 46.7888 18.0744 46.7871C18.0724 46.7838 18.0695 46.7788 18.0656 46.7723C18.0578 46.7592 18.0462 46.7397 18.0311 46.7143C18.0009 46.6635 17.9564 46.5887 17.8996 46.4931C17.7858 46.3019 17.6223 46.0272 17.4232 45.6932C17.0251 45.0254 16.4847 44.1204 15.9159 43.1724C14.7813 41.2813 13.5247 39.204 13.0637 38.5056L12.3844 38.9539ZM5.07712 30.683C5.79718 31.4632 7.43753 33.2467 8.99492 34.9822C9.77376 35.8502 10.5305 36.7047 11.1406 37.4151C11.7578 38.1338 12.2062 38.6839 12.3844 38.9539L13.0637 38.5056C12.8517 38.1843 12.3667 37.5935 11.7581 36.8848C11.1424 36.1679 10.3812 35.3084 9.60073 34.4386C8.03954 32.6988 6.39618 30.9121 5.67527 30.131L5.07712 30.683ZM5.37619 30H5V30.814H5.37619V30ZM5.40698 30.407V29.7475H4.59302V30.407H5.40698ZM-0.406977 17.5C-0.406977 22.379 1.54483 26.803 4.70932 30.0323L5.29068 29.4626C2.26923 26.3793 0.406977 22.1575 0.406977 17.5H-0.406977ZM17.5 -0.406977C7.61025 -0.406977 -0.406977 7.61025 -0.406977 17.5H0.406977C0.406977 8.05978 8.05978 0.406977 17.5 0.406977V-0.406977ZM35.407 17.5C35.407 7.61025 27.3898 -0.406977 17.5 -0.406977V0.406977C26.9402 0.406977 34.593 8.05978 34.593 17.5H35.407Z" fill="#F1F1F1" mask="url(#path-2-inside-1_171_4795)"/>
<path fill-rule="evenodd" clip-rule="evenodd" d="M33.3721 17.5235C33.3721 22.1613 31.3907 26.3354 28.2298 29.2424C27.2058 30.3372 25.2026 32.4958 23.6795 34.2424C22.8501 35.1933 22.1631 36.0221 21.8539 36.4906C20.7481 38.1658 17.7074 44.0288 17.7074 44.0288C17.7074 44.0288 13.9754 37.747 13.1461 36.4906C12.4739 35.4722 8.26476 30.8766 6.69442 29.1722C3.57768 26.2685 1.62793 22.1241 1.62793 17.5235C1.62793 8.74055 8.73411 1.62052 17.5 1.62052C26.2659 1.62052 33.3721 8.74055 33.3721 17.5235Z" fill="#0385FF"/>
<path d="M22.7907 18.843V11.3953C22.7907 11.1795 22.7049 10.9724 22.5523 10.8198C22.3996 10.6671 22.1926 10.5814 21.9767 10.5814C21.7608 10.5814 21.5538 10.6671 21.4012 10.8198C21.2485 10.9724 21.1628 11.1795 21.1628 11.3953V18.843C20.4578 19.0477 19.8385 19.4759 19.3981 20.0631C18.9577 20.6504 18.72 21.3648 18.7209 22.0988C18.7209 23.7674 19.9581 26.8198 21.9767 26.8198C23.9953 26.8198 25.2325 23.7674 25.2325 22.0988C25.2334 21.3648 24.9957 20.6504 24.5553 20.0631C24.1149 19.4759 23.4956 19.0477 22.7907 18.843ZM21.9767 25.2326C21.3255 25.2326 20.3488 23.3849 20.3488 22.1395C20.3289 21.6866 20.4888 21.2442 20.7938 20.9088C21.0987 20.5733 21.524 20.372 21.9767 20.3488C22.4295 20.372 22.8547 20.5733 23.1596 20.9088C23.4646 21.2442 23.6245 21.6866 23.6046 22.1395C23.6046 23.3849 22.6279 25.2326 21.9767 25.2326ZM16.279 10.5814C16.0632 10.5814 15.8561 10.6671 15.7035 10.8198C15.5508 10.9724 15.4651 11.1795 15.4651 11.3953V15.8395L14.6511 16.3849V11.3953C14.6511 11.1795 14.5654 10.9724 14.4127 10.8198C14.2601 10.6671 14.053 10.5814 13.8372 10.5814C13.6213 10.5814 13.4143 10.6671 13.2616 10.8198C13.109 10.9724 13.0232 11.1795 13.0232 11.3953V16.3849L12.2093 15.8395V11.3953C12.2093 11.1795 12.1235 10.9724 11.9709 10.8198C11.8182 10.6671 11.6112 10.5814 11.3953 10.5814C11.1794 10.5814 10.9724 10.6671 10.8198 10.8198C10.6671 10.9724 10.5814 11.1795 10.5814 11.3953V16.2791C10.5821 16.4131 10.6159 16.5449 10.6798 16.6628C10.7436 16.7807 10.8357 16.8809 10.9476 16.9547L13.0232 18.3465V26.0465C13.0232 26.2624 13.109 26.4694 13.2616 26.6221C13.4143 26.7747 13.6213 26.8605 13.8372 26.8605C14.053 26.8605 14.2601 26.7747 14.4127 26.6221C14.5654 26.4694 14.6511 26.2624 14.6511 26.0465V18.3465L16.7267 16.9547C16.8387 16.8809 16.9307 16.7807 16.9946 16.6628C17.0585 16.5449 17.0923 16.4131 17.093 16.2791V11.3953C17.093 11.1795 17.0072 10.9724 16.8546 10.8198C16.7019 10.6671 16.4949 10.5814 16.279 10.5814Z" fill="white"/>
</svg>
