<svg width="24" height="24" viewBox="0 0 24 24" fill="none" xmlns="http://www.w3.org/2000/svg">
<path fill-rule="evenodd" clip-rule="evenodd" d="M12.1692 16.7309C15.1686 16.2509 17.2109 13.4303 16.7309 10.4309C16.2509 7.43149 13.4303 5.38912 10.4309 5.86912C7.43149 6.34913 5.38912 9.16975 5.86913 12.1691C6.34913 15.1685 9.16975 17.2109 12.1692 16.7309ZM11.8531 14.756C13.7618 14.4506 15.0615 12.6556 14.756 10.7469C14.4506 8.83823 12.6557 7.53854 10.7469 7.84399C8.83823 8.14945 7.53854 9.94439 7.844 11.8531C8.14946 13.7618 9.94439 15.0615 11.8531 14.756Z" fill="#A4A4A4"/>
<rect x="14.4967" y="15.4546" width="2" height="5" transform="rotate(-42.7167 14.4967 15.4546)" fill="#A4A4A4"/>
</svg>
