<svg width="24" height="24" viewBox="0 0 24 24" fill="none" xmlns="http://www.w3.org/2000/svg">
<circle cx="11.9999" cy="11.9999" r="7.99992" fill="#A4A4A4"/>
<path fill-rule="evenodd" clip-rule="evenodd" d="M10.0454 8.85721C10.1749 8.11361 10.3482 7.44526 10.5543 6.87869C10.7889 6.23355 11.0561 5.74739 11.3272 5.43207C11.5998 5.11509 11.8289 5.02126 12.0001 5.02126C12.1713 5.02126 12.4004 5.11509 12.6729 5.43207C12.944 5.74739 13.2113 6.23355 13.4459 6.87869C13.6519 7.44526 13.8253 8.11361 13.9547 8.85721C13.3284 8.79745 12.6733 8.7659 12.0001 8.7659C11.3269 8.7659 10.6718 8.79745 10.0454 8.85721ZM8.98888 8.98869C9.13113 8.07044 9.3372 7.2372 9.59448 6.52968C9.85272 5.81954 10.1723 5.20891 10.5528 4.76628C10.9319 4.32531 11.4193 4 12.0001 4C12.5809 4 13.0682 4.32531 13.4473 4.76628C13.8279 5.20891 14.1475 5.81954 14.4057 6.52968C14.663 7.2372 14.869 8.07044 15.0113 8.98869C15.9296 9.13095 16.7628 9.33702 17.4703 9.5943C18.1805 9.85254 18.7911 10.1721 19.2337 10.5526C19.6747 10.9318 20 11.4191 20 11.9999C20 12.5807 19.6747 13.068 19.2337 13.4472C18.7911 13.8277 18.1805 14.1473 17.4703 14.4055C16.7628 14.6628 15.9296 14.8689 15.0113 15.0111C14.869 15.9294 14.663 16.7626 14.4057 17.4701C14.1475 18.1803 13.8279 18.7909 13.4473 19.2335C13.0682 19.6745 12.5809 19.9998 12.0001 19.9998C11.4193 19.9998 10.9319 19.6745 10.5528 19.2335C10.1723 18.7909 9.85272 18.1803 9.59448 17.4701C9.3372 16.7626 9.13113 15.9294 8.98888 15.0111C8.07062 14.8689 7.23739 14.6628 6.52987 14.4055C5.81972 14.1473 5.2091 13.8277 4.76647 13.4472C4.32549 13.068 4.00018 12.5807 4.00018 11.9999C4.00018 11.4191 4.32549 10.9318 4.76647 10.5526C5.2091 10.1721 5.81972 9.85254 6.52987 9.5943C7.23739 9.33702 8.07062 9.13095 8.98888 8.98869ZM8.85739 13.9546C8.1138 13.8251 7.44544 13.6518 6.87888 13.4457C6.23373 13.2111 5.74758 12.9439 5.43225 12.6728C5.11527 12.4002 5.02145 12.1711 5.02145 11.9999C5.02145 11.8287 5.11527 11.5996 5.43225 11.327C5.74758 11.056 6.23373 10.7887 6.87888 10.5541C7.44544 10.3481 8.1138 10.1747 8.85739 10.0452C8.79763 10.6716 8.76608 11.3267 8.76608 11.9999C8.76608 12.6731 8.79763 13.3282 8.85739 13.9546ZM9.89893 14.1011C9.82661 13.4386 9.78735 12.7333 9.78735 11.9999C9.78735 11.2665 9.82661 10.5612 9.89893 9.89875C10.5614 9.82643 11.2667 9.78716 12.0001 9.78716C12.7335 9.78716 13.4388 9.82643 14.1012 9.89875C14.1736 10.5612 14.2128 11.2665 14.2128 11.9999C14.2128 12.7333 14.1736 13.4386 14.1012 14.1011C13.4388 14.1734 12.7335 14.2126 12.0001 14.2126C11.2667 14.2126 10.5614 14.1734 9.89893 14.1011ZM10.0454 15.1426C10.1749 15.8862 10.3482 16.5545 10.5543 17.1211C10.7889 17.7663 11.0561 18.2524 11.3272 18.5677C11.5998 18.8847 11.8289 18.9785 12.0001 18.9785C12.1713 18.9785 12.4004 18.8847 12.6729 18.5677C12.944 18.2524 13.2113 17.7663 13.4459 17.1211C13.6519 16.5545 13.8253 15.8862 13.9547 15.1426C13.3284 15.2024 12.6733 15.2339 12.0001 15.2339C11.3269 15.2339 10.6718 15.2024 10.0454 15.1426ZM15.1428 13.9546C15.8864 13.8251 16.5547 13.6518 17.1213 13.4457C17.7664 13.2111 18.2526 12.9439 18.5679 12.6728C18.8849 12.4002 18.9787 12.1711 18.9787 11.9999C18.9787 11.8287 18.8849 11.5996 18.5679 11.327C18.2526 11.056 17.7664 10.7887 17.1213 10.5541C16.5547 10.3481 15.8864 10.1747 15.1428 10.0452C15.2025 10.6716 15.2341 11.3267 15.2341 11.9999C15.2341 12.6731 15.2025 13.3282 15.1428 13.9546Z" fill="white"/>
</svg>
