<svg width="24" height="24" viewBox="0 0 24 24" fill="none" xmlns="http://www.w3.org/2000/svg">
<path d="M15.71 19.29C15.8037 19.383 15.8781 19.4936 15.9289 19.6154C15.9797 19.7373 16.0058 19.868 16.0058 20C16.0058 20.132 15.9797 20.2627 15.9289 20.3846C15.8781 20.5064 15.8037 20.617 15.71 20.71C15.617 20.8037 15.5064 20.8781 15.3846 20.9289C15.2627 20.9797 15.132 21.0058 15 21.0058C14.868 21.0058 14.7373 20.9797 14.6154 20.9289C14.4936 20.8781 14.383 20.8037 14.29 20.71L6.29 12.71C6.19627 12.617 6.12188 12.5064 6.07111 12.3846C6.02034 12.2627 5.9942 12.132 5.9942 12C5.9942 11.868 6.02034 11.7373 6.07111 11.6154C6.12188 11.4936 6.19627 11.383 6.29 11.29L14.29 3.29C14.4783 3.1017 14.7337 2.99591 15 2.99591C15.1319 2.99591 15.2624 3.02188 15.3842 3.07234C15.5061 3.1228 15.6168 3.19676 15.71 3.29C15.8032 3.38324 15.8772 3.49393 15.9277 3.61575C15.9781 3.73758 16.0041 3.86814 16.0041 4C16.0041 4.13186 15.9781 4.26243 15.9277 4.38425C15.8772 4.50607 15.8032 4.61676 15.71 4.71L8.41 12L15.71 19.29Z" fill="#A4A4A4"/>
</svg>
