<svg width="24" height="24" viewBox="0 0 24 24" fill="none" xmlns="http://www.w3.org/2000/svg">
<circle cx="12" cy="12" r="8" fill="#A4A4A4"/>
<path d="M12.8 8C12.8 8.44183 12.4418 8.8 12 8.8C11.5582 8.8 11.2 8.44183 11.2 8C11.2 7.55817 11.5582 7.2 12 7.2C12.4418 7.2 12.8 7.55817 12.8 8Z" fill="white"/>
<path fill-rule="evenodd" clip-rule="evenodd" d="M10.6 10.4C10.6 10.0686 10.8686 9.8 11.2 9.8H12C12.3314 9.8 12.6 10.0686 12.6 10.4V16C12.6 16.3314 12.3314 16.6 12 16.6C11.6686 16.6 11.4 16.3314 11.4 16V11H11.2C10.8686 11 10.6 10.7314 10.6 10.4Z" fill="white"/>
</svg>
