<svg width="12" height="12" viewBox="0 0 12 12" fill="none" xmlns="http://www.w3.org/2000/svg">
<g clip-path="url(#clip0_105_2830)">
<path d="M9.56978 0.979137V0.642737C9.56978 0.287677 9.29569 0 8.95741 0C8.61912 0 8.34503 0.287677 8.34503 0.642737V0.979137H3.65447V0.642737C3.65447 0.287677 3.38039 0 3.0421 0C2.70381 0 2.42973 0.287677 2.42973 0.642737V0.979137H0V12H12V0.979137H9.56978ZM10.9525 10.9011H1.04696V3.17688H10.953V10.9006L10.9525 10.9011Z" fill="#03C75A"/>
<path d="M5.23232 6.88039L6.83091 9.29066H8.15639V4.78683H6.76769V7.19762L5.16911 4.78683H3.84412V9.29066H5.23232V6.88039Z" fill="#03C75A"/>
</g>
<defs>
<clipPath id="clip0_105_2830">
<rect width="12" height="12" fill="white"/>
</clipPath>
</defs>
</svg>
