<svg width="24" height="24" viewBox="0 0 24 24" fill="none" xmlns="http://www.w3.org/2000/svg">
<path d="M4.87092 11.0317C4.2935 10.3747 4.40346 9.36429 5.10869 8.84674L10.244 5.07807C11.2952 4.3066 12.726 4.30738 13.7764 5.07999L18.8926 8.84328C19.5916 9.35742 19.7053 10.3573 19.1397 11.0151L18.7892 11.4227C18.4406 11.8282 18.2488 12.3452 18.2488 12.8799V16.5192C18.2488 18.1655 16.9137 19.5 15.2667 19.5H8.75507C7.10808 19.5 5.77294 18.1655 5.77294 16.5192V12.9006C5.77294 12.3575 5.57521 11.8331 5.21666 11.4251L4.87092 11.0317Z" fill="#A4A4A4"/>
<circle cx="12" cy="15" r="2.25" fill="white"/>
</svg>
