<svg width="24" height="24" viewBox="0 0 24 24" fill="none" xmlns="http://www.w3.org/2000/svg">
<g clip-path="url(#clip0_121_1950)">
<path d="M16.1647 6.14233V5.74986C16.1647 5.33562 15.845 5 15.4503 5C15.0556 5 14.7359 5.33562 14.7359 5.74986V6.14233H9.26355V5.74986C9.26355 5.33562 8.94378 5 8.54912 5C8.15445 5 7.83468 5.33562 7.83468 5.74986V6.14233H5V19H19V6.14233H16.1647ZM17.778 17.718H6.22145V8.70636H17.7785V17.7174L17.778 17.718Z" fill="#03C75A"/>
<path d="M11.1044 13.0271L12.9694 15.8391H14.5158V10.5846H12.8956V13.3972L11.0306 10.5846H9.4848V15.8391H11.1044V13.0271Z" fill="#03C75A"/>
</g>
<defs>
<clipPath id="clip0_121_1950">
<rect width="14" height="14" fill="white" transform="translate(5 5)"/>
</clipPath>
</defs>
</svg>
