<svg width="43" height="59" viewBox="0 0 43 59" fill="none" xmlns="http://www.w3.org/2000/svg">
<ellipse cx="21.5" cy="57.5" rx="4.5" ry="1.5" fill="#B9C0C9" fill-opacity="0.6"/>
<mask id="path-2-inside-1_163_5597" fill="white">
<path fill-rule="evenodd" clip-rule="evenodd" d="M43 21.75C43 28.0938 40.3153 33.8033 36.0326 37.7791C34.6449 39.2771 31.933 42.2277 29.8706 44.6154C28.7472 45.916 27.8166 47.0495 27.3977 47.6903C25.8999 49.9813 21.7809 58 21.7809 58C21.7809 58 16.7257 49.4086 15.6023 47.6903C14.6921 46.298 8.99459 40.017 6.8655 37.6839C2.64215 33.7124 0 28.0433 0 21.75C0 9.73781 9.62588 0 21.5 0C33.3741 0 43 9.73781 43 21.75Z"/>
</mask>
<path fill-rule="evenodd" clip-rule="evenodd" d="M43 21.75C43 28.0938 40.3153 33.8033 36.0326 37.7791C34.6449 39.2771 31.933 42.2277 29.8706 44.6154C28.7472 45.916 27.8166 47.0495 27.3977 47.6903C25.8999 49.9813 21.7809 58 21.7809 58C21.7809 58 16.7257 49.4086 15.6023 47.6903C14.6921 46.298 8.99459 40.017 6.8655 37.6839C2.64215 33.7124 0 28.0433 0 21.75C0 9.73781 9.62588 0 21.5 0C33.3741 0 43 9.73781 43 21.75Z" fill="white"/>
<path d="M36.0326 37.7791L35.6924 37.4127L35.6786 37.4255L35.6658 37.4393L36.0326 37.7791ZM29.8706 44.6154L29.4922 44.2886V44.2886L29.8706 44.6154ZM27.3977 47.6903L26.9792 47.4167V47.4167L27.3977 47.6903ZM21.7809 58L21.35 58.2536L21.8106 59.0365L22.2257 58.2285L21.7809 58ZM15.6023 47.6903L16.0208 47.4167L15.6023 47.6903ZM6.8655 37.6839L7.23483 37.3468L7.22195 37.3327L7.20802 37.3196L6.8655 37.6839ZM36.3728 38.1455C40.7539 34.0784 43.5 28.2376 43.5 21.75H42.5C42.5 27.95 39.8768 33.5282 35.6924 37.4127L36.3728 38.1455ZM30.249 44.9423C32.3052 42.5617 35.012 39.6165 36.3994 38.1189L35.6658 37.4393C34.2778 38.9376 31.5607 41.8938 29.4922 44.2886L30.249 44.9423ZM27.8162 47.9639C28.2136 47.356 29.1213 46.2478 30.249 44.9423L29.4922 44.2886C28.3731 45.5842 27.4196 46.743 26.9792 47.4167L27.8162 47.9639ZM21.7809 58C22.2257 58.2285 22.2257 58.2285 22.2257 58.2284C22.2257 58.2284 22.2258 58.2283 22.2258 58.2282C22.226 58.2279 22.2261 58.2276 22.2264 58.2271C22.2269 58.2261 22.2276 58.2247 22.2286 58.2228C22.2306 58.219 22.2335 58.2132 22.2374 58.2057C22.2452 58.1905 22.2568 58.1679 22.2721 58.1384C22.3025 58.0792 22.3474 57.9921 22.4051 57.8805C22.5204 57.6571 22.687 57.3353 22.8915 56.942C23.3006 56.1553 23.8616 55.0827 24.4692 53.9389C25.6897 51.641 27.0824 49.0863 27.8162 47.9639L26.9792 47.4167C26.2152 48.5853 24.7994 51.1855 23.586 53.4697C22.9767 54.6169 22.4143 55.6922 22.0043 56.4806C21.7993 56.8749 21.6323 57.1975 21.5166 57.4216C21.4587 57.5336 21.4136 57.6211 21.383 57.6805C21.3677 57.7102 21.356 57.733 21.3481 57.7483C21.3442 57.7559 21.3412 57.7618 21.3392 57.7657C21.3382 57.7676 21.3374 57.7691 21.3369 57.7701C21.3367 57.7706 21.3365 57.7709 21.3364 57.7712C21.3363 57.7713 21.3362 57.7714 21.3362 57.7715C21.3362 57.7715 21.3362 57.7716 21.7809 58ZM15.1838 47.9639C15.7381 48.8117 17.2758 51.3772 18.6831 53.745C19.3849 54.9258 20.0516 56.053 20.5429 56.885C20.7886 57.301 20.9904 57.6432 21.1307 57.8814C21.2009 58.0005 21.2557 58.0935 21.293 58.1568C21.3116 58.1885 21.3259 58.2127 21.3355 58.229C21.3403 58.2371 21.3439 58.2433 21.3463 58.2474C21.3475 58.2495 21.3485 58.251 21.3491 58.2521C21.3494 58.2526 21.3496 58.253 21.3498 58.2532C21.3498 58.2533 21.3499 58.2534 21.3499 58.2535C21.35 58.2536 21.35 58.2536 21.7809 58C22.2119 57.7465 22.2118 57.7464 22.2118 57.7464C22.2118 57.7463 22.2117 57.7462 22.2116 57.7461C22.2115 57.7458 22.2112 57.7454 22.2109 57.7449C22.2103 57.7439 22.2094 57.7423 22.2082 57.7402C22.2057 57.7361 22.2021 57.7299 22.1973 57.7217C22.1877 57.7054 22.1734 57.6811 22.1547 57.6494C22.1174 57.586 22.0625 57.4929 21.9923 57.3737C21.8518 57.1353 21.6498 56.7928 21.404 56.3765C20.9124 55.544 20.2451 54.4159 19.5427 53.2341C18.1415 50.8766 16.5899 48.2872 16.0208 47.4167L15.1838 47.9639ZM6.49616 38.0209C7.56017 39.1869 9.51491 41.3383 11.3168 43.3715C12.2179 44.3883 13.0792 45.3737 13.7711 46.1906C14.471 47.0171 14.9764 47.6465 15.1838 47.9639L16.0208 47.4167C15.7732 47.0379 15.225 46.3601 14.5342 45.5443C13.8352 44.7191 12.9684 43.7274 12.0652 42.7083C10.2585 40.6696 8.29992 38.514 7.23483 37.3468L6.49616 38.0209ZM-0.5 21.75C-0.5 28.186 2.20262 33.9854 6.52297 38.0481L7.20802 37.3196C3.08168 33.4394 0.5 27.9007 0.5 21.75H-0.5ZM21.5 -0.5C9.3443 -0.5 -0.5 9.46713 -0.5 21.75H0.5C0.5 10.0085 9.90745 0.5 21.5 0.5V-0.5ZM43.5 21.75C43.5 9.46713 33.6557 -0.5 21.5 -0.5V0.5C33.0925 0.5 42.5 10.0085 42.5 21.75H43.5Z" fill="#F1F1F1" mask="url(#path-2-inside-1_163_5597)"/>
<path fill-rule="evenodd" clip-rule="evenodd" d="M41 21.625C41 27.3492 38.5649 32.501 34.6804 36.0884C33.4217 37.4401 30.9623 40.1022 29.0919 42.2564C28.073 43.4299 27.229 44.4527 26.8491 45.0309C25.4906 47.0981 21.7548 54.3334 21.7548 54.3334C21.7548 54.3334 17.1698 46.5813 16.1509 45.0309C15.3254 43.7746 10.1582 38.1076 8.22699 36.0023C4.39643 32.4188 2 27.3036 2 21.625C2 10.7864 10.7304 2 21.5 2C32.2696 2 41 10.7864 41 21.625Z" fill="#F56652"/>
<path d="M28 23.15V14C28 13.7348 27.8946 13.4804 27.7071 13.2929C27.5196 13.1054 27.2652 13 27 13C26.7348 13 26.4804 13.1054 26.2929 13.2929C26.1054 13.4804 26 13.7348 26 14V23.15C25.134 23.4015 24.3731 23.9275 23.832 24.649C23.2909 25.3704 22.9989 26.2482 23 27.15C23 29.2 24.52 32.95 27 32.95C29.48 32.95 31 29.2 31 27.15C31.0011 26.2482 30.7091 25.3704 30.168 24.649C29.6269 23.9275 28.866 23.4015 28 23.15ZM27 31C26.2 31 25 28.73 25 27.2C24.9755 26.6436 25.172 26.1 25.5467 25.6879C25.9213 25.2758 26.4438 25.0285 27 25C27.5562 25.0285 28.0787 25.2758 28.4533 25.6879C28.828 26.1 29.0245 26.6436 29 27.2C29 28.73 27.8 31 27 31ZM20 13C19.7348 13 19.4804 13.1054 19.2929 13.2929C19.1054 13.4804 19 13.7348 19 14V19.46L18 20.13V14C18 13.7348 17.8946 13.4804 17.7071 13.2929C17.5196 13.1054 17.2652 13 17 13C16.7348 13 16.4804 13.1054 16.2929 13.2929C16.1054 13.4804 16 13.7348 16 14V20.13L15 19.46V14C15 13.7348 14.8946 13.4804 14.7071 13.2929C14.5196 13.1054 14.2652 13 14 13C13.7348 13 13.4804 13.1054 13.2929 13.2929C13.1054 13.4804 13 13.7348 13 14V20C13.0009 20.1647 13.0424 20.3267 13.1209 20.4715C13.1994 20.6162 13.3124 20.7394 13.45 20.83L16 22.54V32C16 32.2652 16.1054 32.5196 16.2929 32.7071C16.4804 32.8946 16.7348 33 17 33C17.2652 33 17.5196 32.8946 17.7071 32.7071C17.8946 32.5196 18 32.2652 18 32V22.54L20.55 20.83C20.6876 20.7394 20.8006 20.6162 20.8791 20.4715C20.9576 20.3267 20.9991 20.1647 21 20V14C21 13.7348 20.8946 13.4804 20.7071 13.2929C20.5196 13.1054 20.2652 13 20 13Z" fill="white"/>
</svg>
